<svg version="1.1" xmlns="http://www.w3.org/2000/svg" viewBox="0 0 1706.9419521165446 784.5809090743953" width="5120.825856349634" height="2353.742727223186" filter="invert(93%) hue-rotate(180deg)">
  <!-- svg-source:excalidraw -->
  
  <defs>
    <style class="style-fonts">
      @font-face {
        font-family: "Virgil";
        src: url("https://excalidraw.com/Virgil.woff2");
      }
      @font-face {
        font-family: "Cascadia";
        src: url("https://excalidraw.com/Cascadia.woff2");
      }
      @font-face {
        font-family: "Assistant";
        src: url("https://excalidraw.com/Assistant-Regular.woff2");
      }
    </style>
    
  </defs>
  <rect x="0" y="0" width="1706.9419521165446" height="784.5809090743953" fill="#ffffff"></rect><g stroke-linecap="round" transform="translate(68.86248856101565 197.37387612445218) rotate(0 249.25523849107424 263.334054115439)"><path d="M32 0 C133.27 -2.53, 235.47 -2.44, 466.51 0 M32 0 C178.07 1.08, 323.76 0.54, 466.51 0 M466.51 0 C489.34 -1.39, 499.09 10.57, 498.51 32 M466.51 0 C489.95 0.55, 496.29 12.47, 498.51 32 M498.51 32 C499.21 189.81, 499.46 347.25, 498.51 494.67 M498.51 32 C500 206.66, 500.39 380.96, 498.51 494.67 M498.51 494.67 C499.12 516.57, 487.34 525.25, 466.51 526.67 M498.51 494.67 C499.03 518.21, 487.86 524.8, 466.51 526.67 M466.51 526.67 C296.39 529.11, 127.02 528.2, 32 526.67 M466.51 526.67 C372.79 527.28, 280.19 527.27, 32 526.67 M32 526.67 C10.84 526.15, 1.15 514.33, 0 494.67 M32 526.67 C12.77 524.63, -1.59 515.34, 0 494.67 M0 494.67 C-1.32 369.97, -2.41 244.82, 0 32 M0 494.67 C-0.51 311.08, -0.05 127.46, 0 32 M0 32 C1.95 9.65, 12.05 0.5, 32 0 M0 32 C1.46 11.96, 8.39 -0.69, 32 0" stroke="#1971c2" stroke-width="1" fill="none"></path></g><g stroke-opacity="0.6" fill-opacity="0.6" stroke-linecap="round" transform="translate(38.22222222222217 126.97348933699253) rotate(0 294.7551423966277 312.0259320909236)"><path d="M32 0 C139.37 0, 246.75 0, 557.51 0 M557.51 0 C578.84 0, 589.51 10.67, 589.51 32 M589.51 32 C589.51 147.46, 589.51 262.92, 589.51 592.05 M589.51 592.05 C589.51 613.39, 578.84 624.05, 557.51 624.05 M557.51 624.05 C434.02 624.05, 310.54 624.05, 32 624.05 M32 624.05 C10.67 624.05, 0 613.39, 0 592.05 M0 592.05 C0 451.77, 0 311.5, 0 32 M0 32 C0 10.67, 10.67 0, 32 0" stroke="#1e1e1e" stroke-width="1.5" fill="none" stroke-dasharray="8 9"></path></g><g stroke-opacity="0.6" fill-opacity="0.6" stroke-linecap="round" transform="translate(10 48.084600448103615) rotate(0 315.5329201744055 363.24815431314585)"><path d="M32 0 C191.48 0, 350.96 0, 599.07 0 M599.07 0 C620.4 0, 631.07 10.67, 631.07 32 M631.07 32 C631.07 294.87, 631.07 557.74, 631.07 694.5 M631.07 694.5 C631.07 715.83, 620.4 726.5, 599.07 726.5 M599.07 726.5 C455.55 726.5, 312.03 726.5, 32 726.5 M32 726.5 C10.67 726.5, 0 715.83, 0 694.5 M0 694.5 C0 446.93, 0 199.37, 0 32 M0 32 C0 10.67, 10.67 0, 32 0" stroke="#1e1e1e" stroke-width="1.5" fill="none" stroke-dasharray="8 9"></path></g><g stroke-opacity="0.7" fill-opacity="0.7" stroke-linecap="round" transform="translate(822.3263102446643 71.8264126534044) rotate(0 224.0868312395392 341.8605563282472)"><path d="M32 0 C151.6 0, 271.2 0, 416.17 0 M416.17 0 C437.51 0, 448.17 10.67, 448.17 32 M448.17 32 C448.17 205.1, 448.17 378.2, 448.17 651.72 M448.17 651.72 C448.17 673.05, 437.51 683.72, 416.17 683.72 M416.17 683.72 C321.28 683.72, 226.4 683.72, 32 683.72 M32 683.72 C10.67 683.72, 0 673.05, 0 651.72 M0 651.72 C0 467.65, 0 283.57, 0 32 M0 32 C0 10.67, 10.67 0, 32 0" stroke="#1e1e1e" stroke-width="1.5" fill="none" stroke-dasharray="8 9"></path></g><g stroke-opacity="0.7" fill-opacity="0.7" stroke-linecap="round" transform="translate(1330.333964730413 154.82641265340442) rotate(0 183.30399369306576 302.7494452171361)"><path d="M32 0 C93.56 0, 155.12 0, 334.61 0 M334.61 0 C355.94 0, 366.61 10.67, 366.61 32 M366.61 32 C366.61 221.14, 366.61 410.28, 366.61 573.5 M366.61 573.5 C366.61 594.83, 355.94 605.5, 334.61 605.5 M334.61 605.5 C264.42 605.5, 194.24 605.5, 32 605.5 M32 605.5 C10.67 605.5, 0 594.83, 0 573.5 M0 573.5 C0 452.3, 0 331.1, 0 32 M0 32 C0 10.67, 10.67 0, 32 0" stroke="#1e1e1e" stroke-width="1.5" fill="none" stroke-dasharray="8 9"></path></g><g stroke-opacity="0.7" fill-opacity="0.7" stroke-linecap="round" transform="translate(1375.222853619302 238.82641265340442) rotate(0 148.80399369306588 248.36055632824718)"><path d="M32 0 C94.53 0, 157.05 0, 265.61 0 M265.61 0 C286.94 0, 297.61 10.67, 297.61 32 M297.61 32 C297.61 204.25, 297.61 376.5, 297.61 464.72 M297.61 464.72 C297.61 486.05, 286.94 496.72, 265.61 496.72 M265.61 496.72 C182.05 496.72, 98.49 496.72, 32 496.72 M32 496.72 C10.67 496.72, 0 486.05, 0 464.72 M0 464.72 C0 360.56, 0 256.39, 0 32 M0 32 C0 10.67, 10.67 0, 32 0" stroke="#1e1e1e" stroke-width="1.5" fill="none" stroke-dasharray="8 9"></path></g><g transform="translate(82.65829005930027 67.11111111111104) rotate(0 84.7979736328125 22.5)"><text x="0" y="31.536" font-family="Virgil, Segoe UI Emoji" font-size="36px" fill="#1971c2" text-anchor="start" style="white-space: pre;" direction="ltr" dominant-baseline="alphabetic">Front-End</text></g><g transform="translate(326.7692985378212 144.93846709794462) rotate(0 104.77597045898438 17.5)"><text x="0" y="24.528" font-family="Virgil, Segoe UI Emoji" font-size="28px" fill="#1971c2" text-anchor="start" style="white-space: pre;" direction="ltr" dominant-baseline="alphabetic">React Js/ Vite</text></g><g stroke-linecap="round" transform="translate(338.03941818794374 304.14358634640524) rotate(0 103.04912179096334 104.98129282454389)"><path d="M32 0 C74.35 0, 116.7 0, 174.1 0 M32 0 C84.34 0, 136.68 0, 174.1 0 M174.1 0 C195.43 0, 206.1 10.67, 206.1 32 M174.1 0 C195.43 0, 206.1 10.67, 206.1 32 M206.1 32 C206.1 88.15, 206.1 144.3, 206.1 177.96 M206.1 32 C206.1 67.97, 206.1 103.93, 206.1 177.96 M206.1 177.96 C206.1 199.3, 195.43 209.96, 174.1 209.96 M206.1 177.96 C206.1 199.3, 195.43 209.96, 174.1 209.96 M174.1 209.96 C141.74 209.96, 109.37 209.96, 32 209.96 M174.1 209.96 C139.14 209.96, 104.17 209.96, 32 209.96 M32 209.96 C10.67 209.96, 0 199.3, 0 177.96 M32 209.96 C10.67 209.96, 0 199.3, 0 177.96 M0 177.96 C0 147.35, 0 116.74, 0 32 M0 177.96 C0 148.37, 0 118.77, 0 32 M0 32 C0 10.67, 10.67 0, 32 0 M0 32 C0 10.67, 10.67 0, 32 0" stroke="#1971c2" stroke-width="1" fill="none"></path></g><g transform="translate(406.23857965175864 384.12487917094916) rotate(0 34.84996032714844 25)"><text x="34.84996032714844" y="17.52" font-family="Virgil, Segoe UI Emoji" font-size="20px" fill="#1971c2" text-anchor="middle" style="white-space: pre;" direction="ltr" dominant-baseline="alphabetic">Video</text><text x="34.84996032714844" y="42.519999999999996" font-family="Virgil, Segoe UI Emoji" font-size="20px" fill="#1971c2" text-anchor="middle" style="white-space: pre;" direction="ltr" dominant-baseline="alphabetic">Output</text></g><g stroke-linecap="round" transform="translate(130.46836530235146 221.61016669869167) rotate(0 71.54975813054563 31.944444444444457)"><path d="M15.97 0 C41.87 0, 67.76 0, 127.13 0 M15.97 0 C55.67 0, 95.37 0, 127.13 0 M127.13 0 C137.78 0, 143.1 5.32, 143.1 15.97 M127.13 0 C137.78 0, 143.1 5.32, 143.1 15.97 M143.1 15.97 C143.1 28.53, 143.1 41.09, 143.1 47.92 M143.1 15.97 C143.1 26.69, 143.1 37.41, 143.1 47.92 M143.1 47.92 C143.1 58.56, 137.78 63.89, 127.13 63.89 M143.1 47.92 C143.1 58.56, 137.78 63.89, 127.13 63.89 M127.13 63.89 C91.49 63.89, 55.85 63.89, 15.97 63.89 M127.13 63.89 C93.46 63.89, 59.79 63.89, 15.97 63.89 M15.97 63.89 C5.32 63.89, 0 58.56, 0 47.92 M15.97 63.89 C5.32 63.89, 0 58.56, 0 47.92 M0 47.92 C0 41, 0 34.09, 0 15.97 M0 47.92 C0 35.91, 0 23.9, 0 15.97 M0 15.97 C0 5.32, 5.32 0, 15.97 0 M0 15.97 C0 5.32, 5.32 0, 15.97 0" stroke="#1971c2" stroke-width="1" fill="none"></path></g><g transform="translate(148.18815974881505 228.55461114313613) rotate(0 53.82996368408203 25)"><text x="53.82996368408203" y="17.52" font-family="Virgil, Segoe UI Emoji" font-size="20px" fill="#1971c2" text-anchor="middle" style="white-space: pre;" direction="ltr" dominant-baseline="alphabetic">Upload do </text><text x="53.82996368408203" y="42.519999999999996" font-family="Virgil, Segoe UI Emoji" font-size="20px" fill="#1971c2" text-anchor="middle" style="white-space: pre;" direction="ltr" dominant-baseline="alphabetic">Video</text></g><g stroke-linecap="round" transform="translate(332.40053633593186 221.05461114313613) rotate(0 103.13244808741973 32.5)"><path d="M16.25 0 C80.41 -0.79, 146.86 0.14, 190.01 0 M16.25 0 C82.02 0.66, 148.04 0.47, 190.01 0 M190.01 0 C200.07 1.41, 207.13 6.78, 206.26 16.25 M190.01 0 C199.39 1.73, 204.67 6.09, 206.26 16.25 M206.26 16.25 C204.63 27.41, 207.38 36.03, 206.26 48.75 M206.26 16.25 C206.61 28.22, 207.05 41.19, 206.26 48.75 M206.26 48.75 C208.13 59.08, 202.17 66.19, 190.01 65 M206.26 48.75 C207.48 60.28, 201.5 64.42, 190.01 65 M190.01 65 C150.21 65.05, 112.21 68.26, 16.25 65 M190.01 65 C123.31 65.46, 54.39 65.67, 16.25 65 M16.25 65 C5.95 63.22, 0.08 60.4, 0 48.75 M16.25 65 C5.47 65.2, -0.59 60.91, 0 48.75 M0 48.75 C-1.68 41.14, -0.9 36.3, 0 16.25 M0 48.75 C-0.87 38, 0.82 27.31, 0 16.25 M0 16.25 C1.41 4.7, 4.61 1.28, 16.25 0 M0 16.25 C-2.06 7.66, 4.25 1.59, 16.25 0" stroke="#1971c2" stroke-width="1" fill="none"></path></g><g transform="translate(351.7130533930781 228.55461114313613) rotate(0 83.81993103027344 25)"><text x="83.81993103027344" y="17.52" font-family="Virgil, Segoe UI Emoji" font-size="20px" fill="#1971c2" text-anchor="middle" style="white-space: pre;" direction="ltr" dominant-baseline="alphabetic">Configuração do </text><text x="83.81993103027344" y="42.519999999999996" font-family="Virgil, Segoe UI Emoji" font-size="20px" fill="#1971c2" text-anchor="middle" style="white-space: pre;" direction="ltr" dominant-baseline="alphabetic">modelo</text></g><g stroke-linecap="round" transform="translate(169.3903155969321 536.8954664738633) rotate(0 148.72741145515775 77.27907860445015)"><path d="M32 0 C109.47 0, 186.95 0, 265.45 0 M32 0 C82.34 0, 132.68 0, 265.45 0 M265.45 0 C286.79 0, 297.45 10.67, 297.45 32 M265.45 0 C286.79 0, 297.45 10.67, 297.45 32 M297.45 32 C297.45 56.01, 297.45 80.03, 297.45 122.56 M297.45 32 C297.45 52.8, 297.45 73.61, 297.45 122.56 M297.45 122.56 C297.45 143.89, 286.79 154.56, 265.45 154.56 M297.45 122.56 C297.45 143.89, 286.79 154.56, 265.45 154.56 M265.45 154.56 C177.26 154.56, 89.06 154.56, 32 154.56 M265.45 154.56 C189.13 154.56, 112.81 154.56, 32 154.56 M32 154.56 C10.67 154.56, 0 143.89, 0 122.56 M32 154.56 C10.67 154.56, 0 143.89, 0 122.56 M0 122.56 C0 103.69, 0 84.81, 0 32 M0 122.56 C0 96.62, 0 70.68, 0 32 M0 32 C0 10.67, 10.67 0, 32 0 M0 32 C0 10.67, 10.67 0, 32 0" stroke="#1971c2" stroke-width="1" fill="none"></path></g><g transform="translate(230.06780792367186 576.6745450783134) rotate(0 88.04991912841794 37.5)"><text x="88.04991912841797" y="17.52" font-family="Virgil, Segoe UI Emoji" font-size="20px" fill="#1971c2" text-anchor="middle" style="white-space: pre;" direction="ltr" dominant-baseline="alphabetic">Tabela </text><text x="88.04991912841797" y="42.519999999999996" font-family="Virgil, Segoe UI Emoji" font-size="20px" fill="#1971c2" text-anchor="middle" style="white-space: pre;" direction="ltr" dominant-baseline="alphabetic">com as </text><text x="88.04991912841797" y="67.52" font-family="Virgil, Segoe UI Emoji" font-size="20px" fill="#1971c2" text-anchor="middle" style="white-space: pre;" direction="ltr" dominant-baseline="alphabetic">últimas detecções</text></g><g stroke-linecap="round" transform="translate(99.01301323841494 304.14358634640524) rotate(0 106.91346385812449 104.98129282454389)"><path d="M32 0 C85.78 0, 139.55 0, 181.83 0 M32 0 C82.05 0, 132.1 0, 181.83 0 M181.83 0 C203.16 0, 213.83 10.67, 213.83 32 M181.83 0 C203.16 0, 213.83 10.67, 213.83 32 M213.83 32 C213.83 61.36, 213.83 90.72, 213.83 177.96 M213.83 32 C213.83 65.82, 213.83 99.64, 213.83 177.96 M213.83 177.96 C213.83 199.3, 203.16 209.96, 181.83 209.96 M213.83 177.96 C213.83 199.3, 203.16 209.96, 181.83 209.96 M181.83 209.96 C131.68 209.96, 81.54 209.96, 32 209.96 M181.83 209.96 C128.99 209.96, 76.15 209.96, 32 209.96 M32 209.96 C10.67 209.96, 0 199.3, 0 177.96 M32 209.96 C10.67 209.96, 0 199.3, 0 177.96 M0 177.96 C0 141.29, 0 104.61, 0 32 M0 177.96 C0 119.63, 0 61.3, 0 32 M0 32 C0 10.67, 10.67 0, 32 0 M0 32 C0 10.67, 10.67 0, 32 0" stroke="#1971c2" stroke-width="1" fill="none"></path></g><g transform="translate(181.86650242612927 384.12487917094916) rotate(0 24.059974670410156 25)"><text x="24.059974670410156" y="17.52" font-family="Virgil, Segoe UI Emoji" font-size="20px" fill="#1971c2" text-anchor="middle" style="white-space: pre;" direction="ltr" dominant-baseline="alphabetic">Video</text><text x="24.059974670410156" y="42.519999999999996" font-family="Virgil, Segoe UI Emoji" font-size="20px" fill="#1971c2" text-anchor="middle" style="white-space: pre;" direction="ltr" dominant-baseline="alphabetic">input</text></g><g stroke-opacity="0.5" fill-opacity="0.5" stroke-linecap="round" transform="translate(867.6666846728065 127.59434905503672) rotate(0 183.51584561572702 288.89345206846906)"><path d="M32 0 C100.34 -0.58, 168.78 -1.28, 335.03 0 M32 0 C152.47 -2.23, 273.28 -1.52, 335.03 0 M335.03 0 C356.83 1.62, 366.96 9.88, 367.03 32 M335.03 0 C356.35 -0.03, 368.56 10.43, 367.03 32 M367.03 32 C368.35 166.9, 368.47 300.41, 367.03 545.79 M367.03 32 C366.57 195.83, 366.77 360.12, 367.03 545.79 M367.03 545.79 C366.62 567.3, 354.54 577.15, 335.03 577.79 M367.03 545.79 C368.23 564.99, 355.48 575.92, 335.03 577.79 M335.03 577.79 C262.39 579.38, 190.08 581, 32 577.79 M335.03 577.79 C240.7 579.33, 145.34 578.66, 32 577.79 M32 577.79 C12 579.64, -0.58 565.82, 0 545.79 M32 577.79 C10.77 575.95, 1 565.53, 0 545.79 M0 545.79 C1.48 426.21, 1.55 306.69, 0 32 M0 545.79 C-1.24 378.55, -1.4 211.1, 0 32 M0 32 C-1.35 10.4, 10.99 0.44, 32 0 M0 32 C-1.3 9.15, 8.89 2.1, 32 0" stroke="#e03131" stroke-width="1" fill="none"></path></g><g transform="translate(887.0954932068958 81.32774608280953) rotate(0 163.3939208984375 17.5)"><text x="163.3939208984375" y="24.528" font-family="Virgil, Segoe UI Emoji" font-size="28px" fill="#e03131" text-anchor="middle" style="white-space: pre;" direction="ltr" dominant-baseline="alphabetic">Servidor Flask e Python</text></g><g stroke-linecap="round" transform="translate(1120.3329890792656 278.14520060537876) rotate(0 47.25142325403567 30)"><path d="M15 0 C35.27 0, 55.54 0, 79.5 0 M15 0 C37.23 0, 59.45 0, 79.5 0 M79.5 0 C89.5 0, 94.5 5, 94.5 15 M79.5 0 C89.5 0, 94.5 5, 94.5 15 M94.5 15 C94.5 26.38, 94.5 37.76, 94.5 45 M94.5 15 C94.5 21.92, 94.5 28.85, 94.5 45 M94.5 45 C94.5 55, 89.5 60, 79.5 60 M94.5 45 C94.5 55, 89.5 60, 79.5 60 M79.5 60 C61.16 60, 42.83 60, 15 60 M79.5 60 C63.16 60, 46.81 60, 15 60 M15 60 C5 60, 0 55, 0 45 M15 60 C5 60, 0 55, 0 45 M0 45 C0 35.89, 0 26.79, 0 15 M0 45 C0 38.77, 0 32.55, 0 15 M0 15 C0 5, 5 0, 15 0 M0 15 C0 5, 5 0, 15 0" stroke="#e03131" stroke-width="1" fill="none"></path></g><g transform="translate(1129.0344397991216 283.14520060537876) rotate(0 38.54997253417969 25)"><text x="38.54997253417969" y="17.52" font-family="Virgil, Segoe UI Emoji" font-size="20px" fill="#e03131" text-anchor="middle" style="white-space: pre;" direction="ltr" dominant-baseline="alphabetic">Modelo </text><text x="38.54997253417969" y="42.519999999999996" font-family="Virgil, Segoe UI Emoji" font-size="20px" fill="#e03131" text-anchor="middle" style="white-space: pre;" direction="ltr" dominant-baseline="alphabetic">YOLOv8</text></g><g stroke-linecap="round" transform="translate(1124.3329890792656 139.14520060537876) rotate(0 47.25142325403567 30)"><path d="M15 0 C40.78 0, 66.57 0, 79.5 0 M15 0 C31.79 0, 48.59 0, 79.5 0 M79.5 0 C89.5 0, 94.5 5, 94.5 15 M79.5 0 C89.5 0, 94.5 5, 94.5 15 M94.5 15 C94.5 25.35, 94.5 35.7, 94.5 45 M94.5 15 C94.5 23.92, 94.5 32.83, 94.5 45 M94.5 45 C94.5 55, 89.5 60, 79.5 60 M94.5 45 C94.5 55, 89.5 60, 79.5 60 M79.5 60 C59.35 60, 39.21 60, 15 60 M79.5 60 C66.25 60, 52.99 60, 15 60 M15 60 C5 60, 0 55, 0 45 M15 60 C5 60, 0 55, 0 45 M0 45 C0 33.56, 0 22.13, 0 15 M0 45 C0 34.87, 0 24.73, 0 15 M0 15 C0 5, 5 0, 15 0 M0 15 C0 5, 5 0, 15 0" stroke="#e03131" stroke-width="1" fill="none"></path></g><g transform="translate(1145.434433695606 144.14520060537876) rotate(0 26.149978637695312 25)"><text x="26.149978637695312" y="17.52" font-family="Virgil, Segoe UI Emoji" font-size="20px" fill="#e03131" text-anchor="middle" style="white-space: pre;" direction="ltr" dominant-baseline="alphabetic">Video</text><text x="26.149978637695312" y="42.519999999999996" font-family="Virgil, Segoe UI Emoji" font-size="20px" fill="#e03131" text-anchor="middle" style="white-space: pre;" direction="ltr" dominant-baseline="alphabetic">Salvo</text></g><g stroke-linecap="round" transform="translate(909.3705018379094 162.54305739257921) rotate(0 90.81203857828643 41.24719049886454)"><path d="M20.62 0 C70.68 0, 120.73 0, 161 0 M20.62 0 C71.45 0, 122.28 0, 161 0 M161 0 C174.75 0, 181.62 6.87, 181.62 20.62 M161 0 C174.75 0, 181.62 6.87, 181.62 20.62 M181.62 20.62 C181.62 29.92, 181.62 39.21, 181.62 61.87 M181.62 20.62 C181.62 35.43, 181.62 50.24, 181.62 61.87 M181.62 61.87 C181.62 75.62, 174.75 82.49, 161 82.49 M181.62 61.87 C181.62 75.62, 174.75 82.49, 161 82.49 M161 82.49 C131.65 82.49, 102.3 82.49, 20.62 82.49 M161 82.49 C118.88 82.49, 76.76 82.49, 20.62 82.49 M20.62 82.49 C6.87 82.49, 0 75.62, 0 61.87 M20.62 82.49 C6.87 82.49, 0 75.62, 0 61.87 M0 61.87 C0 50.11, 0 38.35, 0 20.62 M0 61.87 C0 51.47, 0 41.07, 0 20.62 M0 20.62 C0 6.87, 6.87 0, 20.62 0 M0 20.62 C0 6.87, 6.87 0, 20.62 0" stroke="#e03131" stroke-width="1" fill="none"></path></g><g transform="translate(923.5725932116059 178.79024789144376) rotate(0 76.60994720458984 25)"><text x="76.60994720458984" y="17.52" font-family="Virgil, Segoe UI Emoji" font-size="20px" fill="#e03131" text-anchor="middle" style="white-space: pre;" direction="ltr" dominant-baseline="alphabetic">Salva video no </text><text x="76.60994720458984" y="42.519999999999996" font-family="Virgil, Segoe UI Emoji" font-size="20px" fill="#e03131" text-anchor="middle" style="white-space: pre;" direction="ltr" dominant-baseline="alphabetic">servidor</text></g><g stroke-linecap="round" transform="translate(901.6418177035871 263.28984881852614) rotate(0 98.54072271260861 54.35594298880659)"><path d="M27.18 0 C83.58 0, 139.98 0, 169.9 0 M27.18 0 C62.16 0, 97.14 0, 169.9 0 M169.9 0 C188.02 0, 197.08 9.06, 197.08 27.18 M169.9 0 C188.02 0, 197.08 9.06, 197.08 27.18 M197.08 27.18 C197.08 38.73, 197.08 50.28, 197.08 81.53 M197.08 27.18 C197.08 41.45, 197.08 55.72, 197.08 81.53 M197.08 81.53 C197.08 99.65, 188.02 108.71, 169.9 108.71 M197.08 81.53 C197.08 99.65, 188.02 108.71, 169.9 108.71 M169.9 108.71 C113.19 108.71, 56.48 108.71, 27.18 108.71 M169.9 108.71 C115.43 108.71, 60.95 108.71, 27.18 108.71 M27.18 108.71 C9.06 108.71, 0 99.65, 0 81.53 M27.18 108.71 C9.06 108.71, 0 99.65, 0 81.53 M0 81.53 C0 65.52, 0 49.5, 0 27.18 M0 81.53 C0 70.54, 0 59.55, 0 27.18 M0 27.18 C0 9.06, 9.06 0, 27.18 0 M0 27.18 C0 9.06, 9.06 0, 27.18 0" stroke="#e03131" stroke-width="1" fill="none"></path></g><g transform="translate(910.9226222033051 280.1457918073327) rotate(0 89.25991821289062 37.5)"><text x="89.25991821289062" y="17.52" font-family="Virgil, Segoe UI Emoji" font-size="20px" fill="#e03131" text-anchor="middle" style="white-space: pre;" direction="ltr" dominant-baseline="alphabetic">Detectar</text><text x="89.25991821289062" y="42.519999999999996" font-family="Virgil, Segoe UI Emoji" font-size="20px" fill="#e03131" text-anchor="middle" style="white-space: pre;" direction="ltr" dominant-baseline="alphabetic">objeto nos frames</text><text x="89.25991821289062" y="67.52" font-family="Virgil, Segoe UI Emoji" font-size="20px" fill="#e03131" text-anchor="middle" style="white-space: pre;" direction="ltr" dominant-baseline="alphabetic">retorna a posição</text></g><g stroke-linecap="round" transform="translate(901.6418177035871 390.25414522435716) rotate(0 98.54072271260861 36.56357898312663)"><path d="M18.28 0 C54.83 0, 91.38 0, 178.8 0 M18.28 0 C64.86 0, 111.43 0, 178.8 0 M178.8 0 C190.99 0, 197.08 6.09, 197.08 18.28 M178.8 0 C190.99 0, 197.08 6.09, 197.08 18.28 M197.08 18.28 C197.08 27.63, 197.08 36.99, 197.08 54.85 M197.08 18.28 C197.08 28.99, 197.08 39.7, 197.08 54.85 M197.08 54.85 C197.08 67.03, 190.99 73.13, 178.8 73.13 M197.08 54.85 C197.08 67.03, 190.99 73.13, 178.8 73.13 M178.8 73.13 C123.57 73.13, 68.35 73.13, 18.28 73.13 M178.8 73.13 C145.25 73.13, 111.7 73.13, 18.28 73.13 M18.28 73.13 C6.09 73.13, 0 67.03, 0 54.85 M18.28 73.13 C6.09 73.13, 0 67.03, 0 54.85 M0 54.85 C0 44.28, 0 33.72, 0 18.28 M0 54.85 C0 43.27, 0 31.7, 0 18.28 M0 18.28 C0 6.09, 6.09 0, 18.28 0 M0 18.28 C0 6.09, 6.09 0, 18.28 0" stroke="#e03131" stroke-width="1" fill="none"></path></g><g transform="translate(911.3426203722504 401.8177242074838) rotate(0 88.83992004394531 25)"><text x="88.83992004394531" y="17.52" font-family="Virgil, Segoe UI Emoji" font-size="20px" fill="#e03131" text-anchor="middle" style="white-space: pre;" direction="ltr" dominant-baseline="alphabetic">Salvar user_input</text><text x="88.83992004394531" y="42.519999999999996" font-family="Virgil, Segoe UI Emoji" font-size="20px" fill="#e03131" text-anchor="middle" style="white-space: pre;" direction="ltr" dominant-baseline="alphabetic">e detecções</text></g><g stroke-linecap="round" transform="translate(901.6418177035871 481.6337136188283) rotate(0 98.54072271260861 30)"><path d="M15 0 C71.62 0, 128.24 0, 182.08 0 M15 0 C65.68 0, 116.35 0, 182.08 0 M182.08 0 C192.08 0, 197.08 5, 197.08 15 M182.08 0 C192.08 0, 197.08 5, 197.08 15 M197.08 15 C197.08 25.41, 197.08 35.83, 197.08 45 M197.08 15 C197.08 22.13, 197.08 29.27, 197.08 45 M197.08 45 C197.08 55, 192.08 60, 182.08 60 M197.08 45 C197.08 55, 192.08 60, 182.08 60 M182.08 60 C118.9 60, 55.71 60, 15 60 M182.08 60 C117.22 60, 52.36 60, 15 60 M15 60 C5 60, 0 55, 0 45 M15 60 C5 60, 0 55, 0 45 M0 45 C0 33.71, 0 22.42, 0 15 M0 45 C0 35.33, 0 25.66, 0 15 M0 15 C0 5, 5 0, 15 0 M0 15 C0 5, 5 0, 15 0" stroke="#e03131" stroke-width="1" fill="none"></path></g><g transform="translate(921.2226023668793 486.6337136188283) rotate(0 78.9599380493164 25)"><text x="78.9599380493164" y="17.52" font-family="Virgil, Segoe UI Emoji" font-size="20px" fill="#e03131" text-anchor="middle" style="white-space: pre;" direction="ltr" dominant-baseline="alphabetic">Enviar video</text><text x="78.9599380493164" y="42.519999999999996" font-family="Virgil, Segoe UI Emoji" font-size="20px" fill="#e03131" text-anchor="middle" style="white-space: pre;" direction="ltr" dominant-baseline="alphabetic">para o frontend</text></g><g stroke-linecap="round" transform="translate(901.6418177035871 559.8861240470461) rotate(0 98.54072271260861 55)"><path d="M27.5 0 C56.94 0, 86.38 0, 169.58 0 M27.5 0 C77.06 0, 126.62 0, 169.58 0 M169.58 0 C187.91 0, 197.08 9.17, 197.08 27.5 M169.58 0 C187.91 0, 197.08 9.17, 197.08 27.5 M197.08 27.5 C197.08 39.89, 197.08 52.28, 197.08 82.5 M197.08 27.5 C197.08 42.63, 197.08 57.76, 197.08 82.5 M197.08 82.5 C197.08 100.83, 187.91 110, 169.58 110 M197.08 82.5 C197.08 100.83, 187.91 110, 169.58 110 M169.58 110 C131.39 110, 93.21 110, 27.5 110 M169.58 110 C140.36 110, 111.13 110, 27.5 110 M27.5 110 C9.17 110, 0 100.83, 0 82.5 M27.5 110 C9.17 110, 0 100.83, 0 82.5 M0 82.5 C0 62.06, 0 41.62, 0 27.5 M0 82.5 C0 61.53, 0 40.56, 0 27.5 M0 27.5 C0 9.17, 9.17 0, 27.5 0 M0 27.5 C0 9.17, 9.17 0, 27.5 0" stroke="#e03131" stroke-width="1" fill="none"></path></g><g transform="translate(907.1326212877777 564.8861240470461) rotate(0 93.04991912841797 50)"><text x="93.04991912841797" y="17.52" font-family="Virgil, Segoe UI Emoji" font-size="20px" fill="#e03131" text-anchor="middle" style="white-space: pre;" direction="ltr" dominant-baseline="alphabetic">Receber as </text><text x="93.04991912841797" y="42.519999999999996" font-family="Virgil, Segoe UI Emoji" font-size="20px" fill="#e03131" text-anchor="middle" style="white-space: pre;" direction="ltr" dominant-baseline="alphabetic">últimas detecções </text><text x="93.04991912841797" y="67.52" font-family="Virgil, Segoe UI Emoji" font-size="20px" fill="#e03131" text-anchor="middle" style="white-space: pre;" direction="ltr" dominant-baseline="alphabetic">e enviar para </text><text x="93.04991912841797" y="92.52" font-family="Virgil, Segoe UI Emoji" font-size="20px" fill="#e03131" text-anchor="middle" style="white-space: pre;" direction="ltr" dominant-baseline="alphabetic">frontend</text></g><g stroke-linecap="round" transform="translate(1430.3177084695462 478.03708111961316) rotate(0 93.70913884282174 112.19055694945672)"><path d="M32 0 C59.23 0, 86.46 0, 155.42 0 M32 0 C75.79 0, 119.58 0, 155.42 0 M155.42 0 C176.75 0, 187.42 10.67, 187.42 32 M155.42 0 C176.75 0, 187.42 10.67, 187.42 32 M187.42 32 C187.42 88.49, 187.42 144.99, 187.42 192.38 M187.42 32 C187.42 89.15, 187.42 146.31, 187.42 192.38 M187.42 192.38 C187.42 213.71, 176.75 224.38, 155.42 224.38 M187.42 192.38 C187.42 213.71, 176.75 224.38, 155.42 224.38 M155.42 224.38 C119.31 224.38, 83.21 224.38, 32 224.38 M155.42 224.38 C113.99 224.38, 72.56 224.38, 32 224.38 M32 224.38 C10.67 224.38, 0 213.71, 0 192.38 M32 224.38 C10.67 224.38, 0 213.71, 0 192.38 M0 192.38 C0 157.98, 0 123.57, 0 32 M0 192.38 C0 158.02, 0 123.65, 0 32 M0 32 C0 10.67, 10.67 0, 32 0 M0 32 C0 10.67, 10.67 0, 32 0" stroke="#2f9e44" stroke-width="1" fill="none"></path></g><g transform="translate(1449.0669245218407 490.2276380690698) rotate(0 74.95992279052734 100)"><text x="74.95992279052734" y="17.52" font-family="Virgil, Segoe UI Emoji" font-size="20px" fill="#2f9e44" text-anchor="middle" style="white-space: pre;" direction="ltr" dominant-baseline="alphabetic">"box_height"</text><text x="74.95992279052734" y="42.519999999999996" font-family="Virgil, Segoe UI Emoji" font-size="20px" fill="#2f9e44" text-anchor="middle" style="white-space: pre;" direction="ltr" dominant-baseline="alphabetic">"box_left"</text><text x="74.95992279052734" y="67.52" font-family="Virgil, Segoe UI Emoji" font-size="20px" fill="#2f9e44" text-anchor="middle" style="white-space: pre;" direction="ltr" dominant-baseline="alphabetic">"box_top"</text><text x="74.95992279052734" y="92.52" font-family="Virgil, Segoe UI Emoji" font-size="20px" fill="#2f9e44" text-anchor="middle" style="white-space: pre;" direction="ltr" dominant-baseline="alphabetic">"box_width"</text><text x="74.95992279052734" y="117.52" font-family="Virgil, Segoe UI Emoji" font-size="20px" fill="#2f9e44" text-anchor="middle" style="white-space: pre;" direction="ltr" dominant-baseline="alphabetic">"class_name"</text><text x="74.95992279052734" y="142.52" font-family="Virgil, Segoe UI Emoji" font-size="20px" fill="#2f9e44" text-anchor="middle" style="white-space: pre;" direction="ltr" dominant-baseline="alphabetic">"confidence"</text><text x="74.95992279052734" y="167.52" font-family="Virgil, Segoe UI Emoji" font-size="20px" fill="#2f9e44" text-anchor="middle" style="white-space: pre;" direction="ltr" dominant-baseline="alphabetic">"frame"</text><text x="74.95992279052734" y="192.52" font-family="Virgil, Segoe UI Emoji" font-size="20px" fill="#2f9e44" text-anchor="middle" style="white-space: pre;" direction="ltr" dominant-baseline="alphabetic">"user_input_id"</text></g><g stroke-linecap="round" transform="translate(1406.390046530873 300.5480625089596) rotate(0 117.6368007814948 65.56229265870942)"><path d="M32 0 C72.46 0, 112.92 0, 203.27 0 M32 0 C79.9 0, 127.8 0, 203.27 0 M203.27 0 C224.61 0, 235.27 10.67, 235.27 32 M203.27 0 C224.61 0, 235.27 10.67, 235.27 32 M235.27 32 C235.27 54.15, 235.27 76.3, 235.27 99.12 M235.27 32 C235.27 54.53, 235.27 77.06, 235.27 99.12 M235.27 99.12 C235.27 120.46, 224.61 131.12, 203.27 131.12 M235.27 99.12 C235.27 120.46, 224.61 131.12, 203.27 131.12 M203.27 131.12 C146.3 131.12, 89.32 131.12, 32 131.12 M203.27 131.12 C145.34 131.12, 87.4 131.12, 32 131.12 M32 131.12 C10.67 131.12, 0 120.46, 0 99.12 M32 131.12 C10.67 131.12, 0 120.46, 0 99.12 M0 99.12 C0 84.33, 0 69.53, 0 32 M0 99.12 C0 78.26, 0 57.39, 0 32 M0 32 C0 10.67, 10.67 0, 32 0 M0 32 C0 10.67, 10.67 0, 32 0" stroke="#2f9e44" stroke-width="1" fill="none"></path></g><g transform="translate(1423.4869379495747 316.11035516766907) rotate(0 100.53990936279297 50.00000000000003)"><text x="100.53990936279297" y="17.52" font-family="Virgil, Segoe UI Emoji" font-size="20px" fill="#2f9e44" text-anchor="middle" style="white-space: pre;" direction="ltr" dominant-baseline="alphabetic">"user_input_id"</text><text x="100.53990936279297" y="42.519999999999996" font-family="Virgil, Segoe UI Emoji" font-size="20px" fill="#2f9e44" text-anchor="middle" style="white-space: pre;" direction="ltr" dominant-baseline="alphabetic">"confidence_input"</text><text x="100.53990936279297" y="67.52" font-family="Virgil, Segoe UI Emoji" font-size="20px" fill="#2f9e44" text-anchor="middle" style="white-space: pre;" direction="ltr" dominant-baseline="alphabetic">"iou_input"</text><text x="100.53990936279297" y="92.52" font-family="Virgil, Segoe UI Emoji" font-size="20px" fill="#2f9e44" text-anchor="middle" style="white-space: pre;" direction="ltr" dominant-baseline="alphabetic">"server_video_name"</text></g><g transform="translate(1386.722907493032 104.41666666666664) rotate(0 136.30393981933594 17.5)"><text x="136.30393981933594" y="24.528" font-family="Virgil, Segoe UI Emoji" font-size="28px" fill="#1e1e1e" text-anchor="middle" style="white-space: pre;" direction="ltr" dominant-baseline="alphabetic">Container postgres </text></g><g transform="translate(67.89113804274677 10) rotate(0 107.75794982910156 17.499999999999993)"><text x="107.75794982910156" y="24.528" font-family="Virgil, Segoe UI Emoji" font-size="28px" fill="#1e1e1e" text-anchor="middle" style="white-space: pre;" direction="ltr" dominant-baseline="alphabetic">Container node </text></g><g mask="url(#mask-8mjt-YnWfJLIp3Ub5d3-D)" stroke-linecap="round"><g transform="translate(573.0395573991366 325.0773520766067) rotate(0 166.7268799277108 -60.63699522325342)"><path d="M0 0 C25.42 -8.03, 96.97 -28, 152.55 -48.21 C208.12 -68.42, 303.3 -109.1, 333.45 -121.27 M0 0 C25.42 -8.03, 96.97 -28, 152.55 -48.21 C208.12 -68.42, 303.3 -109.1, 333.45 -121.27" stroke="#1971c2" stroke-width="1" fill="none"></path></g><g transform="translate(573.0395573991366 325.0773520766067) rotate(0 166.7268799277108 -60.63699522325342)"><path d="M315.02 -104.39 C321.94 -110.73, 328.87 -117.07, 333.45 -121.27 M315.02 -104.39 C320.01 -108.96, 325 -113.53, 333.45 -121.27" stroke="#1971c2" stroke-width="1" fill="none"></path></g><g transform="translate(573.0395573991366 325.0773520766067) rotate(0 166.7268799277108 -60.63699522325342)"><path d="M308.48 -120.19 C317.86 -120.6, 327.24 -121, 333.45 -121.27 M308.48 -120.19 C315.24 -120.48, 322 -120.78, 333.45 -121.27" stroke="#1971c2" stroke-width="1" fill="none"></path></g></g><mask id="mask-8mjt-YnWfJLIp3Ub5d3-D"><rect x="0" y="0" fill="#fff" width="1006.4933172545582" height="546.3513425231135"></rect><rect x="689.4455346328932" y="251.8685773150857" fill="#000" width="72.27993774414062" height="50" opacity="1"></rect></mask><g transform="translate(689.4455346328932 251.86857731508564) rotate(0 50.32090269395417 12.571779538267634)"><text x="36.13996887207031" y="17.52" font-family="Virgil, Segoe UI Emoji" font-size="20px" fill="#1971c2" text-anchor="middle" style="white-space: pre;" direction="ltr" dominant-baseline="alphabetic">/upload</text><text x="36.13996887207031" y="42.519999999999996" font-family="Virgil, Segoe UI Emoji" font-size="20px" fill="#1971c2" text-anchor="middle" style="white-space: pre;" direction="ltr" dominant-baseline="alphabetic">Video</text></g><g mask="url(#mask-CNanYT-O5bruFlzH1PgTs)" stroke-linecap="round"><g transform="translate(890.9451463795162 601.2731989558894) rotate(0 -204.50668516663984 17.036948835981093)"><path d="M0 0 C-26.59 5.68, -91.4 29.98, -159.57 34.07 C-227.74 38.17, -367.44 26.14, -409.01 24.55 M0 0 C-26.59 5.68, -91.4 29.98, -159.57 34.07 C-227.74 38.17, -367.44 26.14, -409.01 24.55" stroke="#e03131" stroke-width="1" fill="none"></path></g><g transform="translate(890.9451463795162 601.2731989558894) rotate(0 -204.50668516663984 17.036948835981093)"><path d="M-385.05 17.41 C-391.36 19.29, -397.66 21.17, -409.01 24.55 M-385.05 17.41 C-391.92 19.46, -398.79 21.5, -409.01 24.55" stroke="#e03131" stroke-width="1" fill="none"></path></g><g transform="translate(890.9451463795162 601.2731989558894) rotate(0 -204.50668516663984 17.036948835981093)"><path d="M-386.07 34.48 C-392.11 31.87, -398.14 29.26, -409.01 24.55 M-386.07 34.48 C-392.65 31.63, -399.22 28.79, -409.01 24.55" stroke="#e03131" stroke-width="1" fill="none"></path></g></g><mask id="mask-CNanYT-O5bruFlzH1PgTs"><rect x="0" y="0" fill="#fff" width="1399.958516712796" height="735.3470966278516"></rect><rect x="660.3955199016118" y="585.3470966278514" fill="#000" width="141.9599151611328" height="100" opacity="1"></rect></mask><g transform="translate(660.3955199016117 585.3470966278517) rotate(0 26.042941311264713 33.38506800814571)"><text x="70.9799575805664" y="17.52" font-family="Virgil, Segoe UI Emoji" font-size="20px" fill="#e03131" text-anchor="middle" style="white-space: pre;" direction="ltr" dominant-baseline="alphabetic">/detections</text><text x="70.9799575805664" y="42.519999999999996" font-family="Virgil, Segoe UI Emoji" font-size="20px" fill="#e03131" text-anchor="middle" style="white-space: pre;" direction="ltr" dominant-baseline="alphabetic">Retorna </text><text x="70.9799575805664" y="67.52" font-family="Virgil, Segoe UI Emoji" font-size="20px" fill="#e03131" text-anchor="middle" style="white-space: pre;" direction="ltr" dominant-baseline="alphabetic">as 10 últimas </text><text x="70.9799575805664" y="92.52" font-family="Virgil, Segoe UI Emoji" font-size="20px" fill="#e03131" text-anchor="middle" style="white-space: pre;" direction="ltr" dominant-baseline="alphabetic">predições</text></g><g transform="translate(1453.8108667825827 184.1567071971201) rotate(0 69.21598052978516 17.5)"><text x="69.21598052978516" y="24.528" font-family="Virgil, Segoe UI Emoji" font-size="28px" fill="#2f9e44" text-anchor="middle" style="white-space: pre;" direction="ltr" dominant-baseline="alphabetic">Database</text></g><g transform="translate(846.4867104499149 14.416666666666657) rotate(0 81.07197570800781 22.500000000000007)"><text x="81.07197570800781" y="31.536" font-family="Virgil, Segoe UI Emoji" font-size="36px" fill="#e03131" text-anchor="middle" style="white-space: pre;" direction="ltr" dominant-baseline="alphabetic">Back-End</text></g><g mask="url(#mask-d79gJvTgT2FqpGHq6wSJ1)" stroke-linecap="round"><g transform="translate(567.4840766542752 418.42772936575875) rotate(0 162.6052940985013 -48.089080068389194)"><path d="M0 0 C26.33 -6.33, 103.75 -21.92, 157.95 -37.95 C212.16 -53.98, 297.33 -86.47, 325.21 -96.18 M0 0 C26.33 -6.33, 103.75 -21.92, 157.95 -37.95 C212.16 -53.98, 297.33 -86.47, 325.21 -96.18" stroke="#2f9e44" stroke-width="2" fill="none"></path></g><g transform="translate(567.4840766542752 418.42772936575875) rotate(0 162.6052940985013 -48.089080068389194)"><path d="M306.03 -80.14 C311.25 -84.5, 316.46 -88.86, 325.21 -96.18 M306.03 -80.14 C313.52 -86.4, 321 -92.66, 325.21 -96.18" stroke="#2f9e44" stroke-width="2" fill="none"></path></g><g transform="translate(567.4840766542752 418.42772936575875) rotate(0 162.6052940985013 -48.089080068389194)"><path d="M300.21 -96.22 C307.01 -96.21, 313.8 -96.2, 325.21 -96.18 M300.21 -96.22 C309.97 -96.2, 319.73 -96.19, 325.21 -96.18" stroke="#2f9e44" stroke-width="2" fill="none"></path></g></g><mask id="mask-d79gJvTgT2FqpGHq6wSJ1"><rect x="0" y="0" fill="#fff" width="992.6946648512778" height="614.6058895025371"></rect><rect x="675.4179482685433" y="342.9752755530769" fill="#000" width="100.03990173339844" height="75" opacity="1"></rect></mask><g transform="translate(675.4179482685433 342.9752755530769) rotate(0 54.671422484233176 27.36337374429263)"><text x="50.01995086669922" y="17.52" font-family="Virgil, Segoe UI Emoji" font-size="20px" fill="#2f9e44" text-anchor="middle" style="white-space: pre;" direction="ltr" dominant-baseline="alphabetic">/detect</text><text x="50.01995086669922" y="42.519999999999996" font-family="Virgil, Segoe UI Emoji" font-size="20px" fill="#2f9e44" text-anchor="middle" style="white-space: pre;" direction="ltr" dominant-baseline="alphabetic">Confidence</text><text x="50.01995086669922" y="67.52" font-family="Virgil, Segoe UI Emoji" font-size="20px" fill="#2f9e44" text-anchor="middle" style="white-space: pre;" direction="ltr" dominant-baseline="alphabetic">iou</text></g><g stroke-linecap="round"><g transform="translate(1433.7273295183809 630.188604559117) rotate(0 -165.38683267599333 6.239911027424057)"><path d="M0 0 C-27.68 3.52, -110.93 22.57, -166.06 21.13 C-221.19 19.69, -303.32 -3.69, -330.77 -8.65 M0 0 C-27.68 3.52, -110.93 22.57, -166.06 21.13 C-221.19 19.69, -303.32 -3.69, -330.77 -8.65" stroke="#2f9e44" stroke-width="2" fill="none"></path></g><g transform="translate(1433.7273295183809 630.188604559117) rotate(0 -165.38683267599333 6.239911027424057)"><path d="M-21.84 12.17 C-15.61 8.7, -9.38 5.23, 0 0 M-21.84 12.17 C-15.31 8.53, -8.78 4.89, 0 0" stroke="#2f9e44" stroke-width="2" fill="none"></path></g><g transform="translate(1433.7273295183809 630.188604559117) rotate(0 -165.38683267599333 6.239911027424057)"><path d="M-24.55 -4.71 C-17.55 -3.37, -10.55 -2.02, 0 0 M-24.55 -4.71 C-17.21 -3.3, -9.87 -1.89, 0 0" stroke="#2f9e44" stroke-width="2" fill="none"></path></g><g transform="translate(1433.7273295183809 630.188604559117) rotate(0 -165.38683267599333 6.239911027424057)"><path d="M-305.98 -11.86 C-313.05 -10.94, -320.12 -10.03, -330.77 -8.65 M-305.98 -11.86 C-313.39 -10.9, -320.81 -9.94, -330.77 -8.65" stroke="#2f9e44" stroke-width="2" fill="none"></path></g><g transform="translate(1433.7273295183809 630.188604559117) rotate(0 -165.38683267599333 6.239911027424057)"><path d="M-309.72 4.83 C-315.72 0.98, -321.73 -2.86, -330.77 -8.65 M-309.72 4.83 C-316.01 0.8, -322.31 -3.23, -330.77 -8.65" stroke="#2f9e44" stroke-width="2" fill="none"></path></g></g><mask></mask><g stroke-linecap="round"><g transform="translate(1103.2424810591467 430.76320841427366) rotate(0 161.5612454698213 46.20958472047272)"><path d="M0 0 C24.13 1.17, 90.94 -8.35, 144.79 7.05 C198.65 22.45, 293.4 78.19, 323.12 92.42 M0 0 C24.13 1.17, 90.94 -8.35, 144.79 7.05 C198.65 22.45, 293.4 78.19, 323.12 92.42" stroke="#1e1e1e" stroke-width="2" fill="none"></path></g><g transform="translate(1103.2424810591467 430.76320841427366) rotate(0 161.5612454698213 46.20958472047272)"><path d="M298.35 89.05 C303.69 89.78, 309.03 90.5, 323.12 92.42 M298.35 89.05 C305.67 90.04, 312.99 91.04, 323.12 92.42" stroke="#1e1e1e" stroke-width="2" fill="none"></path></g><g transform="translate(1103.2424810591467 430.76320841427366) rotate(0 161.5612454698213 46.20958472047272)"><path d="M306.31 73.91 C309.94 77.9, 313.56 81.89, 323.12 92.42 M306.31 73.91 C311.28 79.38, 316.24 84.85, 323.12 92.42" stroke="#1e1e1e" stroke-width="2" fill="none"></path></g></g><mask></mask><g mask="url(#mask-UsZ5dkcEPd1Vp6ClXld-h)" stroke-linecap="round"><g transform="translate(890.8258746445936 518.2680744231108) rotate(0 -158.15982530268315 -14.982441151695696)"><path d="M0 0 C-28.02 -0.63, -115.43 1.22, -168.15 -3.78 C-220.87 -8.77, -291.62 -25.6, -316.32 -29.96 M0 0 C-28.02 -0.63, -115.43 1.22, -168.15 -3.78 C-220.87 -8.77, -291.62 -25.6, -316.32 -29.96" stroke="#1e1e1e" stroke-width="2" fill="none"></path></g><g transform="translate(890.8258746445936 518.2680744231108) rotate(0 -158.15982530268315 -14.982441151695696)"><path d="M-291.6 -33.71 C-301.47 -32.21, -311.33 -30.72, -316.32 -29.96 M-291.6 -33.71 C-301.14 -32.26, -310.68 -30.82, -316.32 -29.96" stroke="#1e1e1e" stroke-width="2" fill="none"></path></g><g transform="translate(890.8258746445936 518.2680744231108) rotate(0 -158.15982530268315 -14.982441151695696)"><path d="M-294.98 -16.94 C-303.5 -22.14, -312.01 -27.34, -316.32 -29.96 M-294.98 -16.94 C-303.21 -21.97, -311.45 -26.99, -316.32 -29.96" stroke="#1e1e1e" stroke-width="2" fill="none"></path></g></g><mask id="mask-UsZ5dkcEPd1Vp6ClXld-h"><rect x="0" y="0" fill="#fff" width="1307.14552524996" height="648.2329567265022"></rect><rect x="668.6597725891756" y="476.9896716458993" fill="#000" width="108.03988647460938" height="75" opacity="1"></rect></mask><g transform="translate(668.6597725891758 476.98967164589953) rotate(0 64.00627675273466 26.295961625515645)"><text x="54.01994323730469" y="17.52" font-family="Virgil, Segoe UI Emoji" font-size="20px" fill="#1e1e1e" text-anchor="middle" style="white-space: pre;" direction="ltr" dominant-baseline="alphabetic">/results</text><text x="54.01994323730469" y="42.519999999999996" font-family="Virgil, Segoe UI Emoji" font-size="20px" fill="#1e1e1e" text-anchor="middle" style="white-space: pre;" direction="ltr" dominant-baseline="alphabetic">video </text><text x="54.01994323730469" y="67.52" font-family="Virgil, Segoe UI Emoji" font-size="20px" fill="#1e1e1e" text-anchor="middle" style="white-space: pre;" direction="ltr" dominant-baseline="alphabetic">processado</text></g><g stroke-linecap="round"><g transform="translate(1105.6966002323443 413.2705955709352) rotate(0 150.11918264017834 -39.87943656445498)"><path d="M0 0 C30.06 -13.29, 130.34 -67.04, 180.38 -79.76 C230.42 -92.48, 280.26 -76.88, 300.24 -76.31 M0 0 C30.06 -13.29, 130.34 -67.04, 180.38 -79.76 C230.42 -92.48, 280.26 -76.88, 300.24 -76.31" stroke="#1e1e1e" stroke-width="2" fill="none"></path></g><g transform="translate(1105.6966002323443 413.2705955709352) rotate(0 150.11918264017834 -39.87943656445498)"><path d="M275.81 -70.97 C283.44 -72.64, 291.06 -74.3, 300.24 -76.31 M275.81 -70.97 C280.95 -72.09, 286.09 -73.22, 300.24 -76.31" stroke="#1e1e1e" stroke-width="2" fill="none"></path></g><g transform="translate(1105.6966002323443 413.2705955709352) rotate(0 150.11918264017834 -39.87943656445498)"><path d="M278.1 -87.92 C285.01 -84.3, 291.92 -80.67, 300.24 -76.31 M278.1 -87.92 C282.75 -85.48, 287.41 -83.04, 300.24 -76.31" stroke="#1e1e1e" stroke-width="2" fill="none"></path></g></g><mask></mask><g stroke-linecap="round"><g transform="translate(1106.6966002323443 273.1587431120945) rotate(0 36.19825780465908 -6.81647669278891)"><path d="M0 0 C5.18 -2.48, 19.02 -15.06, 31.08 -14.86 C43.15 -14.66, 65.51 -1.45, 72.4 1.23 M0 0 C5.18 -2.48, 19.02 -15.06, 31.08 -14.86 C43.15 -14.66, 65.51 -1.45, 72.4 1.23" stroke="#e03131" stroke-width="2" fill="none"></path></g><g transform="translate(1106.6966002323443 273.1587431120945) rotate(0 36.19825780465908 -6.81647669278891)"><path d="M50.33 -0.9 C58.89 -0.07, 67.45 0.75, 72.4 1.23 M50.33 -0.9 C55.85 -0.37, 61.36 0.16, 72.4 1.23" stroke="#e03131" stroke-width="2" fill="none"></path></g><g transform="translate(1106.6966002323443 273.1587431120945) rotate(0 36.19825780465908 -6.81647669278891)"><path d="M56.86 -14.59 C62.89 -8.45, 68.92 -2.32, 72.4 1.23 M56.86 -14.59 C60.75 -10.63, 64.63 -6.68, 72.4 1.23" stroke="#e03131" stroke-width="2" fill="none"></path></g></g><mask></mask><g stroke-linecap="round"><g transform="translate(1170.7307583220709 342.1011395482156) rotate(0 -33.13060883816263 12.270595865986138)"><path d="M0 0 C-3.48 4.09, -9.82 21.06, -20.86 24.54 C-31.9 28.02, -58.69 21.47, -66.26 20.86 M0 0 C-3.48 4.09, -9.82 21.06, -20.86 24.54 C-31.9 28.02, -58.69 21.47, -66.26 20.86" stroke="#e03131" stroke-width="2" fill="none"></path></g><g transform="translate(1170.7307583220709 342.1011395482156) rotate(0 -33.13060883816263 12.270595865986138)"><path d="M-43.92 16.46 C-51.82 18.02, -59.72 19.57, -66.26 20.86 M-43.92 16.46 C-49.02 17.46, -54.13 18.47, -66.26 20.86" stroke="#e03131" stroke-width="2" fill="none"></path></g><g transform="translate(1170.7307583220709 342.1011395482156) rotate(0 -33.13060883816263 12.270595865986138)"><path d="M-46.31 31.85 C-53.37 27.96, -60.42 24.08, -66.26 20.86 M-46.31 31.85 C-50.87 29.34, -55.43 26.83, -66.26 20.86" stroke="#e03131" stroke-width="2" fill="none"></path></g></g><mask></mask><g transform="translate(1466.3369135355124 266.9176515538078) rotate(0 57.68993377685547 12.5)"><text x="57.68993377685547" y="17.52" font-family="Virgil, Segoe UI Emoji" font-size="20px" fill="#1e1e1e" text-anchor="middle" style="white-space: pre;" direction="ltr" dominant-baseline="alphabetic">user_inputs</text></g><g transform="translate(1473.2469019388327 448.0287626649189) rotate(0 50.779945373535156 12.5)"><text x="50.779945373535156" y="17.52" font-family="Virgil, Segoe UI Emoji" font-size="20px" fill="#1e1e1e" text-anchor="middle" style="white-space: pre;" direction="ltr" dominant-baseline="alphabetic">detections</text></g><g stroke-linecap="round"><g transform="translate(1013.2888843895589 156.43154044269636) rotate(0 53.5 -8.5)"><path d="M0 0 C7.83 -2.83, 29.17 -17, 47 -17 C64.83 -17, 97 -2.83, 107 0 M0 0 C7.83 -2.83, 29.17 -17, 47 -17 C64.83 -17, 97 -2.83, 107 0" stroke="#e03131" stroke-width="2" fill="none"></path></g><g transform="translate(1013.2888843895589 156.43154044269636) rotate(0 53.5 -8.5)"><path d="M82 0.28 C88.8 0.2, 95.59 0.13, 107 0 M82 0.28 C91.36 0.17, 100.71 0.07, 107 0" stroke="#e03131" stroke-width="2" fill="none"></path></g><g transform="translate(1013.2888843895589 156.43154044269636) rotate(0 53.5 -8.5)"><path d="M87.67 -15.86 C92.93 -11.55, 98.18 -7.24, 107 0 M87.67 -15.86 C94.91 -9.92, 102.14 -3.99, 107 0" stroke="#e03131" stroke-width="2" fill="none"></path></g></g><mask></mask><g stroke-linecap="round"><g transform="translate(1138.288884389559 204.43154044269636) rotate(0 -19 27)"><path d="M0 0 C-6.33 9, -31.67 45, -38 54 M0 0 C-6.33 9, -31.67 45, -38 54" stroke="#e03131" stroke-width="2" fill="none"></path></g><g transform="translate(1138.288884389559 204.43154044269636) rotate(0 -19 27)"><path d="M-31.47 29.87 C-33.9 38.83, -36.32 47.78, -38 54 M-31.47 29.87 C-32.85 34.94, -34.22 40.02, -38 54" stroke="#e03131" stroke-width="2" fill="none"></path></g><g transform="translate(1138.288884389559 204.43154044269636) rotate(0 -19 27)"><path d="M-17.49 39.71 C-25.1 45.01, -32.72 50.32, -38 54 M-17.49 39.71 C-21.8 42.71, -26.11 45.72, -38 54" stroke="#e03131" stroke-width="2" fill="none"></path></g></g><mask></mask><g stroke-linecap="round"><g transform="translate(895.2888843895589 359.43154044269636) rotate(0 -20 35.5)"><path d="M0 0 C-7 5.67, -42.33 22.17, -42 34 C-41.67 45.83, -5.33 64.83, 2 71 M0 0 C-7 5.67, -42.33 22.17, -42 34 C-41.67 45.83, -5.33 64.83, 2 71" stroke="#e03131" stroke-width="2" fill="none"></path></g><g transform="translate(895.2888843895589 359.43154044269636) rotate(0 -20 35.5)"><path d="M-22.28 65.05 C-14.79 66.89, -7.3 68.72, 2 71 M-22.28 65.05 C-12.93 67.34, -3.57 69.64, 2 71" stroke="#e03131" stroke-width="2" fill="none"></path></g><g transform="translate(895.2888843895589 359.43154044269636) rotate(0 -20 35.5)"><path d="M-12.78 50.83 C-8.22 57.05, -3.66 63.28, 2 71 M-12.78 50.83 C-7.08 58.6, -1.39 66.37, 2 71" stroke="#e03131" stroke-width="2" fill="none"></path></g></g><mask></mask><g stroke-linecap="round"><g transform="translate(1109.288884389559 452.43154044269636) rotate(0 19 33)"><path d="M0 0 C8 8.5, 49.67 40, 48 51 C46.33 62, -0.33 63.5, -10 66 M0 0 C8 8.5, 49.67 40, 48 51 C46.33 62, -0.33 63.5, -10 66" stroke="#e03131" stroke-width="2" fill="none"></path></g><g transform="translate(1109.288884389559 452.43154044269636) rotate(0 19 33)"><path d="M12.11 54.33 C3.3 58.98, -5.51 63.63, -10 66 M12.11 54.33 C5.18 57.99, -1.75 61.65, -10 66" stroke="#e03131" stroke-width="2" fill="none"></path></g><g transform="translate(1109.288884389559 452.43154044269636) rotate(0 19 33)"><path d="M14.44 71.27 C4.7 69.17, -5.04 67.07, -10 66 M14.44 71.27 C6.78 69.62, -0.88 67.97, -10 66" stroke="#e03131" stroke-width="2" fill="none"></path></g></g><mask></mask></svg>