<svg xmlns="http://www.w3.org/2000/svg" viewBox="0 0 1440 320">
  <path fill="#FFFF" fill-opacity="1" d="M0,64L0,224L48,224L48,96L96,96L96,64L144,64L144,128L192,128L192,224L240,224L240,256L288,256L288,96L336,96L336,224L384,224L384,32L432,32L432,192L480,192L480,96L528,96L528,96L576,96L576,64L624,64L624,192L672,192L672,64L720,64L720,128L768,128L768,288L816,288L816,288L864,288L864,96L912,96L912,64L960,64L960,320L1008,320L1008,288L1056,288L1056,224L1104,224L1104,256L1152,256L1152,192L1200,192L1200,224L1248,224L1248,320L1296,320L1296,256L1344,256L1344,160L1392,160L1392,192L1440,192L1440,0L1392,0L1392,0L1344,0L1344,0L1296,0L1296,0L1248,0L1248,0L1200,0L1200,0L1152,0L1152,0L1104,0L1104,0L1056,0L1056,0L1008,0L1008,0L960,0L960,0L912,0L912,0L864,0L864,0L816,0L816,0L768,0L768,0L720,0L720,0L672,0L672,0L624,0L624,0L576,0L576,0L528,0L528,0L480,0L480,0L432,0L432,0L384,0L384,0L336,0L336,0L288,0L288,0L240,0L240,0L192,0L192,0L144,0L144,0L96,0L96,0L48,0L48,0L0,0L0,0Z"></path>
</svg>